<mxfile host="app.diagrams.net" modified="2020-08-23T15:05:03.235Z" agent="5.0 (Windows NT 10.0; Win64; x64) AppleWebKit/537.36 (KHTML, like Gecko) Chrome/84.0.4147.135 Safari/537.36" etag="Xuo7LQD65Zn8UdulraSa" version="13.6.4" type="github">
  <diagram id="eOXbC0yHjLSWk24R0SAp" name="Page-1">
    <mxGraphModel dx="1417" dy="827" grid="1" gridSize="10" guides="1" tooltips="1" connect="1" arrows="1" fold="1" page="0" pageScale="1" pageWidth="1200" pageHeight="1600" background="#114B5F" math="0" shadow="0">
      <root>
        <mxCell id="0" />
        <mxCell id="1" parent="0" />
        <mxCell id="5pKVukqXBjBuUZWrbyZg-41" style="edgeStyle=orthogonalEdgeStyle;curved=0;rounded=1;sketch=0;orthogonalLoop=1;jettySize=auto;html=1;strokeColor=#028090;fillColor=#F45B69;fontSize=16;fontColor=#E4FDE1;" parent="1" source="5pKVukqXBjBuUZWrbyZg-1" edge="1">
          <mxGeometry relative="1" as="geometry">
            <mxPoint x="520" y="150" as="targetPoint" />
          </mxGeometry>
        </mxCell>
        <mxCell id="5pKVukqXBjBuUZWrbyZg-1" value="" style="rhombus;whiteSpace=wrap;html=1;fillColor=#F45B69;strokeColor=#028090;fontColor=#E4FDE1;" parent="1" vertex="1">
          <mxGeometry x="300" y="110" width="80" height="80" as="geometry" />
        </mxCell>
        <mxCell id="5pKVukqXBjBuUZWrbyZg-3" value="" style="endArrow=classic;html=1;labelBackgroundColor=#114B5F;strokeColor=#028090;fontColor=#E4FDE1;entryX=0;entryY=0.5;entryDx=0;entryDy=0;" parent="1" target="5pKVukqXBjBuUZWrbyZg-1" edge="1">
          <mxGeometry relative="1" as="geometry">
            <mxPoint x="80" y="149.5" as="sourcePoint" />
            <mxPoint x="180" y="149.5" as="targetPoint" />
          </mxGeometry>
        </mxCell>
        <mxCell id="5pKVukqXBjBuUZWrbyZg-4" value="4 Week" style="edgeLabel;resizable=0;html=1;align=center;verticalAlign=middle;labelBackgroundColor=#114B5F;fontColor=#E4FDE1;fontSize=14;" parent="5pKVukqXBjBuUZWrbyZg-3" connectable="0" vertex="1">
          <mxGeometry relative="1" as="geometry" />
        </mxCell>
        <mxCell id="5pKVukqXBjBuUZWrbyZg-5" value="10-20km (major supply) collect milk from farmers collected by 50 litres steel" style="text;html=1;strokeColor=none;fillColor=none;align=center;verticalAlign=middle;whiteSpace=wrap;rounded=0;fontColor=#E4FDE1;fontSize=15;" parent="1" vertex="1">
          <mxGeometry x="80" y="190" width="210" height="10" as="geometry" />
        </mxCell>
        <mxCell id="5pKVukqXBjBuUZWrbyZg-19" value="" style="endArrow=classic;html=1;strokeColor=#028090;fillColor=#F45B69;fontSize=14;fontColor=#E4FDE1;" parent="1" edge="1">
          <mxGeometry width="50" height="50" relative="1" as="geometry">
            <mxPoint x="339.29" y="30" as="sourcePoint" />
            <mxPoint x="339.58" y="110" as="targetPoint" />
          </mxGeometry>
        </mxCell>
        <mxCell id="5pKVukqXBjBuUZWrbyZg-21" value="Individuals Farmers" style="text;html=1;strokeColor=none;fillColor=none;align=center;verticalAlign=middle;whiteSpace=wrap;rounded=0;sketch=0;fontSize=14;fontColor=#E4FDE1;" parent="1" vertex="1">
          <mxGeometry x="320" y="50" width="40" height="20" as="geometry" />
        </mxCell>
        <mxCell id="5pKVukqXBjBuUZWrbyZg-34" style="edgeStyle=orthogonalEdgeStyle;curved=0;rounded=1;sketch=0;orthogonalLoop=1;jettySize=auto;html=1;entryX=0.5;entryY=1;entryDx=0;entryDy=0;strokeColor=#028090;fillColor=#F45B69;fontSize=16;fontColor=#E4FDE1;" parent="1" source="5pKVukqXBjBuUZWrbyZg-24" target="5pKVukqXBjBuUZWrbyZg-1" edge="1">
          <mxGeometry relative="1" as="geometry" />
        </mxCell>
        <mxCell id="5pKVukqXBjBuUZWrbyZg-24" value="Inspection&amp;nbsp;&lt;br&gt;a. Alcohol test if fresh (if not soldified)&lt;br&gt;b. Lactometer if not water (26-30 density);&amp;nbsp; &amp;nbsp;&amp;lt; 26 = water &lt;br&gt;&amp;gt; 30 = foieign things (powder, fertlizer).&lt;br&gt;c. Lack-Scanner (Incase above show doubtful re" style="text;html=1;strokeColor=none;fillColor=none;align=center;verticalAlign=middle;whiteSpace=wrap;rounded=0;sketch=0;fontSize=14;fontColor=#E4FDE1;" parent="1" vertex="1">
          <mxGeometry x="200" y="310" width="280" height="20" as="geometry" />
        </mxCell>
        <mxCell id="5pKVukqXBjBuUZWrbyZg-37" value="Pass Test" style="text;html=1;strokeColor=none;fillColor=none;align=center;verticalAlign=middle;whiteSpace=wrap;rounded=0;sketch=0;fontSize=16;fontColor=#E4FDE1;" parent="1" vertex="1">
          <mxGeometry x="470" y="120" width="40" height="20" as="geometry" />
        </mxCell>
        <mxCell id="5pKVukqXBjBuUZWrbyZg-43" style="edgeStyle=orthogonalEdgeStyle;curved=0;rounded=1;sketch=0;orthogonalLoop=1;jettySize=auto;html=1;strokeColor=#028090;fillColor=#F45B69;fontSize=16;fontColor=#E4FDE1;entryX=0;entryY=0.5;entryDx=0;entryDy=0;" parent="1" source="5pKVukqXBjBuUZWrbyZg-42" edge="1" target="5pKVukqXBjBuUZWrbyZg-45">
          <mxGeometry relative="1" as="geometry">
            <mxPoint x="810" y="150" as="targetPoint" />
          </mxGeometry>
        </mxCell>
        <mxCell id="5pKVukqXBjBuUZWrbyZg-42" value="Reception Tank (300lts)" style="rounded=0;whiteSpace=wrap;html=1;sketch=0;strokeColor=#028090;fillColor=#F45B69;fontSize=16;fontColor=#E4FDE1;" parent="1" vertex="1">
          <mxGeometry x="520" y="120" width="120" height="60" as="geometry" />
        </mxCell>
        <mxCell id="5pKVukqXBjBuUZWrbyZg-45" value="Cloth Filter&lt;br&gt;Small particles&lt;br&gt;and fiber." style="rounded=0;whiteSpace=wrap;html=1;sketch=0;strokeColor=#028090;fillColor=#F45B69;fontSize=16;fontColor=#E4FDE1;" parent="1" vertex="1">
          <mxGeometry x="710" y="120" width="120" height="60" as="geometry" />
        </mxCell>
        <mxCell id="UUfqp5zau8kcQlaUnb6R-1" value="" style="html=1;verticalAlign=bottom;endArrow=block;strokeColor=#028090;fillColor=#F45B69;fontSize=16;fontColor=#E4FDE1;exitX=1;exitY=0.5;exitDx=0;exitDy=0;" edge="1" parent="1" source="5pKVukqXBjBuUZWrbyZg-45">
          <mxGeometry width="80" relative="1" as="geometry">
            <mxPoint x="970" y="149.5" as="sourcePoint" />
            <mxPoint x="890" y="150" as="targetPoint" />
            <mxPoint as="offset" />
          </mxGeometry>
        </mxCell>
        <mxCell id="UUfqp5zau8kcQlaUnb6R-11" value="Cloth Filter&lt;br&gt;Small particles&lt;br&gt;and fiber." style="rounded=0;whiteSpace=wrap;html=1;sketch=0;strokeColor=#028090;fillColor=#F45B69;fontSize=16;fontColor=#E4FDE1;" vertex="1" parent="1">
          <mxGeometry x="890" y="120" width="120" height="60" as="geometry" />
        </mxCell>
        <mxCell id="UUfqp5zau8kcQlaUnb6R-62" value="" style="rounded=0;whiteSpace=wrap;html=1;sketch=0;strokeColor=#028090;fillColor=#F45B69;fontSize=16;fontColor=#E4FDE1;" vertex="1" parent="1">
          <mxGeometry x="510" y="230" width="120" height="60" as="geometry" />
        </mxCell>
      </root>
    </mxGraphModel>
  </diagram>
</mxfile>
